<?xml version="1.0" encoding="UTF-8"?><svg id="a" xmlns="http://www.w3.org/2000/svg" viewBox="0 0 500 500" width="40" height="40"><defs><style>.b{fill:#484848;}</style></defs><polygon class="b" points="415.09 155.06 405.08 155.06 405.08 149.74 207.55 73.93 10.01 149.74 10.01 155.06 0 155.06 0 142.86 207.55 63.21 415.09 142.86 415.09 155.06"/><polygon class="b" points="207.55 436.79 0 357.14 0 142.63 207.55 222.28 415.09 142.63 415.09 238.08 405.08 238.08 405.08 157.2 207.55 233.01 10.01 157.2 10.01 350.26 207.55 426.07 405.08 350.26 405.08 295.91 415.09 295.91 415.09 357.14 207.55 436.79"/><path class="b" d="M132.04,259.18l-62.05-25.09v-64.64l62.05,25.09v64.64Zm-52.04-31.84l42.03,16.99v-43.04l-42.03-16.99v43.04Z"/><rect class="b" x="202.54" y="227.65" width="10.01" height="203.79"/><rect class="b" x="114.7" y="150.05" width="220" height="10.01" transform="translate(-41.74 95.54) rotate(-22.02)"/><rect class="b" x="66.15" y="132.33" width="220" height="10.01" transform="translate(-38.64 76.05) rotate(-22.02)"/><path class="b" d="M439.7,328.85v-28.8h-109.36v-63.01h109.36v-28.8l60.3,60.3-60.3,60.3Zm-99.35-38.81h109.36v14.64l36.13-36.13-36.13-36.13v14.64h-109.36v42.99Z"/></svg>