<?xml version="1.0" encoding="UTF-8"?>
<svg xmlns="http://www.w3.org/2000/svg" xmlns:xlink="http://www.w3.org/1999/xlink" width="200px" height="200px" viewBox="0 0 200 200" version="1.1">
	<!-- Generator: Sketch 53.2 (72643) - https://sketchapp.com -->
	<title>3102-paytm</title>
	<desc>Created with Sketch for Hektor Commerce.</desc>
	<g id="3102-paytm" stroke="none" stroke-width="1" fill-rule="evenodd">
		<rect id="core" fill-opacity="0" x="100" y="100" width="1" height="1" fill="#f04f36" />
		<path d="M106.723163,92.70722 C106.930302,93.2952277 107.081758,93.8676444 107.081758,95.2129348 L107.081758,114.942375 C107.081758,115.523701 106.611798,115.991434 106.034926,115.991434 L101.299683,115.991434 C100.722811,115.991434 100.252851,115.523701 100.252851,114.942375 L100.235032,96.5983164 C100.237259,95.6940318 99.6180696,94.9167035 98.5935107,94.8276114 L97.7204083,94.8276114 C97.3840857,94.8587937 97.0923093,94.9634768 96.8495332,95.1193881 C96.3572996,95.4445741 96.0766595,95.9924904 96.0788868,96.5983164 L96.0811142,115.042604 C96.0543866,115.597202 95.600017,116.042662 95.0409641,116.042662 L90.3057203,116.042662 C89.7288491,116.042662 89.2588884,115.572701 89.2588884,114.991376 L89.24107,96.6228168 C89.24107,96.070446 89.0116579,95.5670756 88.599607,95.2396624 C88.3345581,95.0280686 87.9982355,94.8877486 87.5995485,94.8521118 L86.7264461,94.8521118 C85.7731609,94.9367492 85.1695621,95.613849 85.0938338,96.4379508 C85.0871519,96.4980878 85.0849246,96.558225 85.0849246,96.6228168 L85.0871519,115.082695 C85.0181055,115.592747 84.5837817,115.98698 84.0559111,115.98698 L79.3206673,115.98698 C78.7415688,115.98698 78.2738354,115.519246 78.2738354,114.93792 L78.2738354,89.2237198 C78.2738354,88.642394 78.7415688,88.1746607 79.3206673,88.1746607 L84.0559111,88.1746607 C84.6060547,88.1746607 85.0515151,88.6000753 85.0938338,89.1413097 L85.0938338,89.6847713 C86.3322137,88.6156664 87.9447802,87.9697489 89.7088034,87.9697489 L89.7733951,87.9697489 C91.7779668,87.9697489 93.586536,88.8049871 94.8761439,90.1458229 C96.1635243,88.8049871 97.9720935,87.9697489 99.9788925,87.9697489 L100.043484,87.9697489 C103.130525,87.9697489 105.758741,89.9498203 106.723163,92.70722 Z M74.6664979,88.2417013 C75.2433691,88.2417013 75.7133298,88.711662 75.7133298,89.2885333 L75.7133298,94.0237771 C75.7133298,94.6006483 75.2433691,95.070609 74.6664979,95.070609 L72.0137814,95.070609 L72.0115541,115.149736 C72.0115541,115.722152 71.5482753,116.185431 70.978086,116.185431 L66.2962974,116.185431 C65.7238808,116.185431 65.260602,115.722152 65.260602,115.149736 L65.2650566,95.070609 L62.4074282,95.070609 C61.8283297,95.070609 61.358369,94.6006483 61.358369,94.0237771 L61.358369,89.2885333 C61.358369,88.7896176 61.7102827,88.3753394 62.1780161,88.2706563 L62.1735615,88.2684289 L62.1780161,88.2684289 C62.2515171,88.2528378 62.3272454,88.2417013 62.4074282,88.2417013 L62.9397534,88.2417013 C68.4211434,87.8875603 67.8197719,83.7291876 70.8221748,82.9050859 C70.8800847,82.8939495 70.9402219,82.8850402 71.0025863,82.8850402 C71.5304569,82.8850402 71.9580988,83.3126822 71.9580988,83.8405527 L71.9580988,88.2417013 L74.6664979,88.2417013 Z M57.6296429,88.2417013 C58.2087413,88.2417013 58.6764747,88.711662 58.6764747,89.2885333 L58.6764747,109.093702 C58.6764747,113.171892 55.772073,116.076293 51.6916559,116.076293 L43.9495545,116.076293 C43.370456,116.076293 42.9027226,115.60856 42.9027226,115.029461 L42.9027226,110.296445 C42.9027226,109.719574 43.370456,109.249613 43.9495545,109.249613 L50.8742361,109.225113 C50.903191,109.220658 50.9276914,109.213976 50.954419,109.209522 C51.500108,109.140475 51.921068,108.679424 51.921068,108.115916 C51.921068,107.545727 51.4911988,107.082448 50.9388279,107.020084 C50.8452812,107.002265 47.7849684,107.002265 47.7849684,107.002265 C43.7067786,107.002265 40.8001496,104.095636 40.8001496,100.019674 L40.8001496,89.2885333 C40.8001496,88.711662 41.267883,88.2417013 41.8469815,88.2417013 L46.5822253,88.2417013 C47.1590965,88.2417013 47.6290572,88.711662 47.6290572,89.2885333 L47.6468757,99.061934 C47.6468757,99.6766694 48.143564,100.17113 48.7582993,100.17113 L50.740598,100.17113 C51.3486514,100.17113 51.8386579,99.6855785 51.8497944,99.0797525 L51.8497944,89.2885333 C51.8497944,88.711662 52.3175278,88.2417013 52.894399,88.2417013 L57.6296429,88.2417013 Z M11.7957782,99.8403766 L11.7957782,96.2076472 C11.7957782,95.5929119 11.2990898,95.0984508 10.6865818,95.0984508 L7.68195152,95.0984508 L7.68195152,100.954028 L10.6865818,100.9518 C11.2990898,100.9518 11.7957782,100.452885 11.7957782,99.8403766 Z M12.2122836,88.2405882 C16.0031515,88.2405882 18.6447316,90.879941 18.6447316,94.6863999 L18.6447316,101.366078 C18.6447316,105.172537 16.0031515,107.802981 12.2122836,107.802981 L7.68195152,107.802981 L7.6641331,114.999393 C7.6641331,115.578492 7.19417239,116.046225 6.61730121,116.046225 L1.79296527,116.046225 C1.26286741,116.032861 0.835225447,115.567355 0.835225447,114.997166 L0.835225447,93.9981637 C0.835225447,93.978118 0.837452748,93.9558449 0.837452748,93.9335719 C0.837452748,93.9246628 0.835225447,93.9157534 0.835225447,93.9068443 L0.835225447,89.2673744 C0.835225447,88.7016398 1.29404964,88.2405882 1.86201163,88.2405882 L12.2122836,88.2405882 Z M31.443031,108.774531 L31.443031,104.727523 C31.443031,104.150652 30.9441154,103.685146 30.3271528,103.685146 L28.3559906,103.685146 C27.7412552,103.685146 27.2445669,104.148424 27.2423396,104.720841 L27.2401123,104.727523 L27.2401123,105.471442 L27.237885,107.847973 C27.237885,107.859109 27.2401123,107.870246 27.2401123,107.881382 L27.2401123,108.774531 C27.2401123,109.349174 27.7412552,109.816908 28.3559906,109.816908 L30.3271528,109.816908 C30.8193865,109.816908 31.2336646,109.516222 31.3806666,109.101944 C31.398485,109.052943 31.4140761,109.001715 31.4252126,108.94826 C31.4341218,108.892578 31.443031,108.834668 31.443031,108.774531 Z M30.690203,88.2677619 C36.0580006,88.2677619 38.3031208,91.0184798 38.3031208,95.3750822 L38.3031208,113.342727 C38.3031208,114.779336 37.0536046,115.946443 35.5123116,115.946443 L26.9260627,115.946443 C22.8345091,115.946443 20.3109761,113.226907 20.3109761,109.404857 L20.3109761,103.898967 C20.3109761,100.054644 23.24656,97.3172895 27.3670685,97.3172895 L30.4652455,97.3172895 C30.9374335,97.2727434 31.324984,96.8807384 31.3806666,96.3439586 L31.3806666,95.7336779 C31.324984,95.1701706 30.9329789,94.8093476 30.4385178,94.731392 L24.1820268,94.731392 C23.5672914,94.731392 23.0683758,94.2636586 23.0683758,93.6912421 L23.0683758,91.167709 C23.0683758,91.1543452 23.0706031,91.1409813 23.0706031,91.1276175 C23.0706031,91.116481 23.0683758,91.1031172 23.0683758,91.0919808 L23.0683758,89.2500019 C23.0683758,88.7087677 23.5383365,88.2677619 24.1196623,88.2677619 L30.690203,88.2677619 Z M115.096705,93.5010306 L115.963125,93.5010306 C117.027776,93.5010306 117.796195,93.3362103 118.250565,93.0065696 C118.682661,92.6947473 118.892027,92.1958317 118.892027,91.4808678 C118.892027,90.8438594 118.696025,90.3872625 118.292883,90.0865768 C117.867469,89.7680726 117.179232,89.6099342 116.241538,89.6099342 L115.096705,89.6099342 L115.096705,93.5010306 Z M115.096705,99.4679724 L113.261408,99.4679724 L113.261408,87.9461396 L116.381858,87.9461396 C119.295169,87.9461396 120.77187,89.1132459 120.77187,91.4185033 C120.77187,92.6167918 120.353138,93.5500313 119.529036,94.2004034 C118.72498,94.8351845 117.573465,95.1559159 116.105673,95.1559159 L115.096705,95.1559159 L115.096705,99.4679724 Z M128.211058,94.0012815 L126.749948,94.0614187 C125.502659,94.1059647 124.596147,94.29974 124.054913,94.6360626 C123.531497,94.963476 123.275357,95.4601643 123.275357,96.1573098 C123.275357,96.7007714 123.431268,97.1016858 123.754227,97.3778712 C124.079413,97.6585113 124.544919,97.7988313 125.137381,97.7988313 C126.097348,97.7988313 126.856858,97.5337824 127.398093,97.014821 C127.9371,96.4958597 128.211058,95.7541681 128.211058,94.8120194 L128.211058,94.0012815 Z M124.818877,99.404716 C123.736408,99.404716 122.872215,99.1196213 122.250798,98.5538866 C121.627153,97.988152 121.310877,97.1751868 121.310877,96.1372641 C121.310877,93.9166441 123.086036,92.7361741 126.585128,92.6314909 L128.251149,92.5758083 L128.251149,92.0546197 C128.251149,91.2639275 128.081874,90.6736925 127.747779,90.3039604 C127.420366,89.9409102 126.876904,89.7560441 126.135213,89.7560441 C125.277701,89.7560441 124.288779,90.0233203 123.197401,90.5534182 L123.061536,90.6180099 L122.464619,89.1346269 L122.573757,89.0744897 C123.103855,88.7871678 123.691862,88.559983 124.324416,88.3951626 C124.95697,88.2303423 125.598433,88.1479321 126.233214,88.1479321 C127.527276,88.1479321 128.505062,88.4441633 129.137616,89.0299437 C129.774624,89.6134968 130.097583,90.5556455 130.097583,91.8296622 L130.097583,99.2109407 L128.654291,99.2109407 L128.355833,97.8010586 C127.856917,98.3979755 127.349092,98.8122537 126.845722,99.0394385 C126.304487,99.2822144 125.622933,99.404716 124.818877,99.404716 Z M133.171706,103.970907 C132.67279,103.970907 132.173875,103.915225 131.688323,103.80386 L131.579185,103.781587 L131.579185,102.206884 L131.750687,102.242521 C132.091464,102.318249 132.481242,102.356113 132.908884,102.356113 C133.957943,102.356113 134.688498,101.777015 135.140641,100.587636 L135.71083,99.1309803 L131.376501,88.3241114 L133.403345,88.3241114 L135.759831,94.4625555 C136.174109,95.587343 136.465885,96.4648999 136.626251,97.0885444 C136.722025,96.7611311 136.862345,96.3268072 137.049438,95.7699817 C137.314487,94.9770622 138.198726,92.5025298 139.677655,88.4154308 L139.711064,88.3241114 L141.735682,88.3241114 L141.664408,88.513432 L137.105121,100.59209 C136.648524,101.801515 136.100608,102.674618 135.481418,103.191352 C134.855546,103.708086 134.078218,103.970907 133.171706,103.970907 Z M158.521743,99.2107186 L156.635218,99.2107186 L156.635218,92.1702172 C156.635218,91.3639339 156.463716,90.7536532 156.127393,90.3594208 C155.795525,89.9718702 155.265427,89.7758677 154.550463,89.7758677 C153.597178,89.7758677 152.888896,90.0498258 152.441208,90.5866056 C151.986839,91.1322945 151.757427,91.9942604 151.757427,93.1480028 L151.757427,99.2107186 L149.870902,99.2107186 L149.870902,92.1702172 C149.870902,91.3639339 149.6994,90.7536532 149.36085,90.3594208 C149.028982,89.9718702 148.494429,89.7758677 147.775011,89.7758677 C146.819498,89.7758677 146.111216,90.0631896 145.674665,90.6244697 C145.229205,91.1991136 145.00202,92.1702172 145.00202,93.5043711 L145.00202,99.2107186 L143.115495,99.2107186 L143.115495,88.3236668 L144.679061,88.3236668 L144.915155,89.631093 C145.220296,89.1945419 145.623437,88.8426282 146.117898,88.5820338 C146.68586,88.2813481 147.334005,88.1276642 148.035605,88.1276642 C149.668218,88.1276642 150.777414,88.7067628 151.338694,89.844914 C151.661653,89.3393165 152.10934,88.9339475 152.672848,88.6310345 C153.292038,88.2991665 154.004774,88.1276642 154.791012,88.1276642 C156.024937,88.1276642 156.967086,88.4550776 157.588503,89.0965406 C158.207693,89.7380035 158.521743,90.7647897 158.521743,92.1501715 L158.521743,99.2107186 Z M162.399251,92.6114463 L167.646775,92.6114463 C167.626729,91.7049344 167.410681,90.9988797 167.003084,90.5133279 C166.575442,90.0032758 165.978526,89.7560453 165.176697,89.7560453 C164.370414,89.7560453 163.717814,90.0210942 163.241171,90.5422828 C162.784575,91.0434258 162.501707,91.7361167 162.399251,92.6114463 Z M165.611021,99.4047171 C164.009591,99.4047171 162.726665,98.9080288 161.79788,97.9302433 C160.869095,96.9502304 160.399134,95.5804398 160.399134,93.8542808 C160.399134,92.1192126 160.835685,90.7182397 161.695424,89.6892262 C162.561844,88.6557581 163.740087,88.1278876 165.194515,88.1278876 C166.559851,88.1278876 167.655684,88.5867117 168.455285,89.488769 C169.248205,90.3863717 169.651346,91.5802055 169.651346,93.0413156 L169.651346,94.1972853 L162.350251,94.1972853 C162.401479,95.3332092 162.704392,96.2063116 163.252308,96.7987739 C163.818043,97.4090546 164.631008,97.7208769 165.668931,97.7208769 C166.787036,97.7208769 167.909596,97.4847829 169.000974,97.0170495 L169.196977,96.932412 L169.196977,98.6697075 L169.112339,98.7053443 C168.539923,98.9548021 167.989779,99.1352136 167.475272,99.2421241 C166.960766,99.3490346 166.334894,99.4047171 165.611021,99.4047171 Z M181.255144,99.2107186 L179.36862,99.2107186 L179.36862,92.2080813 C179.36862,91.3839797 179.181526,90.7647897 178.814022,90.36833 C178.450971,89.9740975 177.862964,89.7758677 177.070044,89.7758677 C176.007621,89.7758677 175.223611,90.0631896 174.738059,90.6244697 C174.245825,91.1968863 173.996368,92.1657626 173.996368,93.5043711 L173.996368,99.2107186 L172.109843,99.2107186 L172.109843,88.3236668 L173.673409,88.3236668 L173.91173,89.6422296 C174.243598,89.1923146 174.680149,88.8359463 175.219156,88.5753519 C175.82721,88.2791208 176.517673,88.1276642 177.263819,88.1276642 C178.573473,88.1276642 179.575759,88.4528503 180.243949,89.092086 C180.916595,89.7335489 181.255144,90.7625624 181.255144,92.1501715 L181.255144,99.2107186 Z M187.609191,99.4042716 C185.473208,99.4042716 184.39074,98.2661203 184.39074,96.0232273 L184.39074,89.853601 L182.87172,89.853601 L182.87172,88.8468606 L184.41524,88.1675335 L185.103476,85.8645033 L186.279492,85.8645033 L186.279492,88.3234446 L189.355395,88.3234446 L189.355395,89.853601 L186.279492,89.853601 L186.279492,95.954181 C186.279492,96.5555525 186.419812,97.0188313 186.698224,97.3306535 C186.976637,97.6447031 187.350824,97.798387 187.84083,97.798387 C188.114788,97.798387 188.384292,97.7783412 188.642659,97.7360225 C188.896571,97.6959311 189.10371,97.6536123 189.255167,97.6090663 L189.433351,97.5578383 L189.433351,99.0634944 L189.353168,99.0991313 C189.166075,99.1904506 188.901026,99.2639516 188.546885,99.3218615 C188.20388,99.3753167 187.887604,99.4042716 187.609191,99.4042716 Z M194.05389,99.4033802 C192.628417,99.4033802 191.499175,99.1739681 190.695119,98.7195985 L190.623845,98.6772797 L190.623845,96.8776198 L190.828757,96.982303 C191.323218,97.2317608 191.866679,97.4344453 192.439096,97.5792199 C193.011513,97.7239945 193.568338,97.7997228 194.093981,97.7997228 C194.902492,97.7997228 195.530591,97.668312 195.958233,97.4166269 C196.365829,97.1716236 196.566286,96.8108007 196.566286,96.3141124 C196.566286,95.9399257 196.405921,95.6281034 196.080735,95.3608272 C195.735503,95.0779598 195.045039,94.7371826 194.022708,94.3429502 C193.033786,93.9754454 192.316594,93.6458047 191.89118,93.3651647 C191.459083,93.0822973 191.13167,92.7504293 190.917849,92.3851518 C190.704028,92.017647 190.59489,91.5744139 190.59489,91.0665891 C190.59489,90.1578499 190.969077,89.4317495 191.708541,88.9061062 C192.434641,88.3915995 193.4347,88.1287779 194.684216,88.1287779 C195.840186,88.1287779 196.985019,88.3670992 198.087534,88.8370599 L198.218944,88.8949697 L197.535163,90.4563084 L197.408207,90.4028531 C196.363602,89.9729839 195.408089,89.7547083 194.568397,89.7547083 C193.837842,89.7547083 193.283243,89.8683007 192.917966,90.0932582 C192.572734,90.3048518 192.405686,90.5899465 192.405686,90.9596786 C192.405686,91.213591 192.468051,91.4296393 192.595007,91.6033689 C192.728645,91.7860076 192.949148,91.9664191 193.252061,92.135694 C193.566111,92.3094236 194.183073,92.5700179 195.091813,92.9085678 C196.379193,93.3785285 197.23225,93.8418073 197.693301,94.3295864 C198.158807,94.8173655 198.394901,95.4387827 198.394901,96.1760197 C198.394901,97.2072605 198.005123,98.0135438 197.234477,98.5748238 C196.477194,99.1249674 195.408089,99.4033802 194.05389,99.4033802 Z M115.0947,109.755657 L116.912179,109.755657 C117.747417,109.755657 118.344334,109.630928 118.689566,109.385925 C119.00807,109.156513 119.163981,108.764508 119.163981,108.185409 C119.163981,107.670903 118.990251,107.314534 118.63611,107.096259 C118.244105,106.851255 117.589279,106.728754 116.687221,106.728754 L115.0947,106.728754 L115.0947,109.755657 Z M115.0947,114.931907 L117.099272,114.931907 C117.916692,114.931907 118.5292,114.78045 118.92566,114.477537 C119.302074,114.187988 119.484713,113.735846 119.484713,113.092155 C119.484713,112.504148 119.299846,112.092097 118.918978,111.824821 C118.513609,111.539726 117.865464,111.394951 116.994589,111.394951 L115.0947,111.394951 L115.0947,114.931907 Z M117.362094,116.58011 L113.259404,116.58011 L113.259404,105.067187 L116.633766,105.067187 C118.159468,105.067187 119.241937,105.294371 119.943537,105.764332 C120.674092,106.254339 121.043824,107.022758 121.043824,108.058453 C121.043824,108.775644 120.836685,109.377016 120.431316,109.849204 C120.195222,110.123162 119.896763,110.343665 119.53594,110.506258 C121.061642,111.060856 121.409101,112.23019 121.409101,113.183475 C121.409101,114.245898 121.041597,115.090045 120.315496,115.691417 C119.604987,116.281652 118.61161,116.58011 117.362094,116.58011 Z M129.581741,111.21298 L128.10504,111.275344 C126.844387,111.31989 125.926738,111.515893 125.381049,111.85667 C124.848724,112.186311 124.590357,112.691908 124.590357,113.393508 C124.590357,113.93697 124.75295,114.351248 125.073682,114.629661 C125.401095,114.912528 125.873283,115.055075 126.474655,115.055075 C127.443531,115.055075 128.21195,114.787799 128.759866,114.262156 C129.305555,113.73874 129.581741,112.990367 129.581741,112.034854 L129.581741,111.21298 Z M126.151696,116.676551 C125.058091,116.676551 124.184988,116.387002 123.559116,115.816813 C122.92879,115.246623 122.608058,114.422522 122.608058,113.37569 C122.608058,111.130569 124.401036,109.938963 127.937992,109.832052 L129.621832,109.77637 L129.621832,109.248499 C129.621832,108.446671 129.45033,107.851981 129.114007,107.477794 C128.782139,107.11029 128.231996,106.923196 127.481395,106.923196 C126.614975,106.923196 125.614916,107.194927 124.512402,107.731707 L124.376536,107.796298 L123.775165,106.299552 L123.884302,106.239414 C124.418855,105.949865 125.013544,105.715998 125.65278,105.551178 C126.289788,105.386358 126.940161,105.303948 127.581624,105.303948 C128.88905,105.303948 129.875745,105.600179 130.517208,106.190414 C131.160898,106.782876 131.486084,107.736161 131.486084,109.023542 L131.486084,116.480549 L130.029428,116.480549 L129.726515,115.055075 C129.220918,115.658674 128.706411,116.079634 128.200814,116.306819 C127.652897,116.549595 126.962434,116.676551 126.151696,116.676551 Z M143.791258,116.480995 L141.886915,116.480995 L141.886915,109.404857 C141.886915,108.571846 141.697594,107.945974 141.327862,107.542833 C140.960358,107.146373 140.365668,106.943688 139.561612,106.943688 C138.488052,106.943688 137.695133,107.233238 137.202899,107.803427 C136.706211,108.380298 136.454526,109.362538 136.454526,110.714511 L136.454526,116.480995 L134.550183,116.480995 L134.550183,105.480351 L136.12934,105.480351 L136.369888,106.814505 C136.703984,106.360135 137.147217,105.994858 137.690678,105.734264 C138.307641,105.433578 139.002559,105.284349 139.757615,105.284349 C141.080632,105.284349 142.094054,105.609535 142.771154,106.255452 C143.448254,106.903597 143.791258,107.943747 143.791258,109.346947 L143.791258,116.480995 Z M155.847198,116.480995 L153.528576,116.480995 L149.791164,111.478475 L148.730968,112.393896 L148.730968,116.480995 L146.846671,116.480995 L146.846671,100.978974 L148.730968,100.978974 L148.730968,109.191036 C148.730968,109.489495 148.71315,109.9305 148.677513,110.496235 C148.949244,110.137639 149.314521,109.701088 149.766663,109.193263 L153.274664,105.480351 L155.588831,105.480351 L151.103045,110.197777 L155.847198,116.480995 Z" id="Shape"  fill="#f04f36" />
	</g>
</svg>
