<?xml version="1.0" encoding="UTF-8"?>
<svg xmlns="http://www.w3.org/2000/svg" xmlns:xlink="http://www.w3.org/1999/xlink" width="200px" height="200px" viewBox="0 0 200 200" version="1.1">
	<!-- Generator: Sketch 53.2 (72643) - https://sketchapp.com -->
	<title>390-rupay</title>
	<desc>Created with Sketch for Hektor Commerce.</desc>
	<g id="390-rupay" stroke="none" stroke-width="1" fill-rule="evenodd" opacity="0.9375">
		<rect id="core" fill-opacity="0" x="100" y="100" width="1" height="1" fill="#f04f36" />
		<path d="M174.366006,113.43239 L165.13968,121.802263 L176.441833,80.4540601 L180.938206,89.388413 L183.41847,80.3145273 L194.162491,101.663037 L172.116317,121.66273 L174.366006,113.43239 Z M8.05052744,113.258237 C7.86448378,113.118705 9.16678939,108.188548 12.1899988,97.2584829 C14.6085664,88.5609418 16.8876012,80.4215318 17.2596885,79.1657371 L17.9108413,76.8867023 L27.4455788,77.0727459 C38.6081983,77.2587896 40.3291022,77.4448332 42.1430279,78.3285406 C45.3057701,79.9564226 46.1894774,82.4215011 45.1197264,86.7005052 C44.1895081,90.3748675 42.3755824,92.839946 38.9337747,95.3050244 C38.2826219,95.7701336 37.724491,96.3282646 37.6779801,96.5608191 C37.6314691,96.7933737 38.0500674,97.3980156 38.7477311,98.0026575 C39.352373,98.5607885 40.0500367,99.3049631 40.2360804,99.6770504 C40.7477004,100.65378 40.6546786,102.560727 39.9570149,105.956024 C39.6314385,107.583906 39.2593511,109.955963 39.2128402,111.165246 L39.0733075,113.39777 L34.4687269,113.39777 C31.2129629,113.39777 29.7711246,113.304748 29.53857,113.118705 C29.0734608,112.653596 29.1664827,111.537334 29.9571682,108.235059 C30.8408756,104.560696 30.8873865,103.118858 30.1897228,102.235151 C29.2595045,101.072378 28.422308,100.793312 25.0735222,100.700291 C22.3758891,100.607269 21.91078,100.65378 21.5386927,101.025867 C20.8875399,101.583998 20.3759198,103.072347 18.8875705,108.700168 L17.538754,113.444281 L12.9341735,113.444281 C10.4225841,113.444281 8.23657109,113.351259 8.05052744,113.258237 Z M32.3757358,92.7934351 C34.5617488,92.1422823 35.4919671,90.7004439 35.4919671,87.9562999 C35.4919671,87.1191035 35.3524343,86.5609725 35.0733688,86.1888852 C34.422216,85.3981996 32.4222467,85.1191341 28.6548626,85.3051778 L25.3990986,85.4912215 L24.9339894,87.1191035 C24.1898148,89.584182 23.6781947,92.0027495 23.7712166,92.5608805 C23.8177275,92.9329678 24.096793,93.1190115 24.7014349,93.2585442 C25.9572296,93.4910988 30.9804083,93.2120333 32.3757358,92.7934351 Z M47.8638704,113.955901 C46.422032,113.444281 45.2592591,112.467552 44.7476391,111.304779 C43.8174208,109.165277 44.6546172,104.374653 48.0034031,92.7934351 C48.7940886,90.0027802 49.4452415,87.7237454 49.4452415,87.6772345 C49.4452415,87.6307235 49.6312851,87.4446799 49.8173288,87.2586362 C50.1429052,86.9330598 50.8405689,86.8865489 53.6777347,86.8865489 C55.5846822,86.8865489 57.3986079,86.9795707 57.7241843,87.1191035 L58.3288261,87.351658 L57.7241843,89.4911601 C56.235835,94.7003826 54.7474857,101.025867 54.4684202,103.025836 C54.2358657,104.839762 54.2358657,105.304871 54.5149311,105.909513 C55.166084,107.25833 57.5381406,107.537395 59.5381099,106.514155 C61.9101666,105.304871 62.3287648,104.281631 66.0961489,91.0725312 C66.6542799,89.1190728 67.0728781,88.1423436 67.5379872,87.6307235 L68.18914,86.9330598 L71.9565241,86.9330598 C74.8867118,86.9330598 75.7704191,87.0260816 75.863441,87.2586362 C75.9564628,87.4911908 71.1658386,105.351382 69.1193583,112.281508 L68.7937819,113.351259 L64.7473324,113.490792 C62.5148085,113.537303 60.7008828,113.537303 60.7008828,113.444281 C60.7008828,113.351259 60.8869264,112.839639 61.0729701,112.234997 C61.9101666,109.909452 60.8869264,109.769919 57.9102279,111.769888 C54.9800403,113.769858 53.7242456,114.234967 51.2126562,114.327989 C49.6312851,114.42101 48.8871105,114.327989 47.8638704,113.955901 Z M74.7006681,113.258237 C74.4681135,113.118705 75.7239082,108.328081 79.3982705,95.0724699 L84.4214492,77.0727459 L92.8864357,77.1657677 C103.444413,77.2587896 105.583915,77.4448332 107.630396,78.4215624 C109.304789,79.2587589 110.095474,80.0029335 110.839649,81.398261 C112.095443,83.7703176 112.048933,86.5144616 110.793138,90.3283566 C108.793169,96.1422209 105.072295,99.9561159 100.142138,101.258422 C99.3514528,101.444465 96.8398635,101.723531 94.6073396,101.863063 C87.1655932,102.328173 87.5841914,102.235151 87.2121041,103.258391 C87.0260605,103.770011 86.2818858,106.235089 85.5377112,108.79319 L84.2354056,113.444281 L79.630825,113.444281 C77.0727247,113.444281 74.8402008,113.351259 74.7006681,113.258237 Z M96.4212652,93.909697 C98.8863437,93.5841206 100.188649,92.839946 100.979335,91.212064 C101.863042,89.4911601 102.095597,87.5842126 101.537466,86.7470162 C100.793291,85.5842433 99.7235402,85.3051778 95.7701124,85.3516887 C93.816654,85.3516887 92.0957502,85.4447105 92.0027283,85.5842433 C91.7236628,85.8633088 90.0492699,92.4213477 90.0492699,93.2120333 C90.0492699,93.5376097 90.1422917,93.8631861 90.1888027,93.9562079 C90.4678682,94.1887625 94.4678068,94.1422516 96.4212652,93.909697 Z M110.235007,114.095434 C107.397841,112.88615 106.653666,110.932692 107.583885,107.025775 C108.88619,101.537487 111.723356,99.6770504 121.537159,98.0491684 C127.444045,97.0724392 128.932395,96.3282646 129.350993,94.1887625 C129.676569,92.6073914 128.327753,91.7701949 125.537098,91.7701949 C123.816194,91.7701949 123.165041,92.0027495 121.630181,93.3050551 L120.420897,94.3282952 L117.304666,94.4213171 C113.676815,94.5143389 112.560553,94.3748062 112.560553,93.8166752 C112.560553,93.1655224 114.002391,91.165553 115.304697,89.9562693 C116.746535,88.6539637 118.606971,87.6307235 120.653452,87.1191035 C124.932456,86.0028415 132.374202,86.1423743 134.885792,87.351658 C136.234608,88.0028109 137.443892,89.1190728 138.048534,90.2353348 C138.606665,91.2585749 138.420621,92.3748368 135.81601,102.560727 C134.560215,107.583906 133.536975,112.095465 133.536975,112.607085 L133.536975,113.537303 L130.560277,113.537303 C128.932395,113.537303 127.071958,113.583814 126.467316,113.676836 L125.351054,113.816368 L124.839434,112.653596 C124.281303,111.304779 124.188281,111.304779 121.165072,112.653596 C117.862797,114.141945 116.653513,114.467521 114.095413,114.607054 C111.9094,114.653565 111.537312,114.607054 110.235007,114.095434 Z M123.211552,108.421102 C124.885945,107.676928 126.746382,104.653718 126.746382,102.70026 L126.746382,101.770042 L125.211521,101.909574 C123.537128,102.049107 119.909277,103.21188 118.606971,104.049076 C117.49071,104.74674 116.839557,105.863002 116.839557,107.025775 C116.839557,108.188548 117.0256,108.467613 117.816286,108.839701 C118.746504,109.258299 121.955757,108.979233 123.211552,108.421102 Z M136.513674,124.885966 C135.536944,124.653412 135.490434,124.327835 136.188097,121.676713 C137.071805,118.141884 137.025294,118.188394 139.257818,117.862818 C141.676385,117.490731 142.746136,116.979111 143.257756,115.90936 C143.862398,114.700076 143.815887,110.048984 143.071713,97.5375484 C142.653114,90.5609112 142.560093,87.4446799 142.746136,87.2121253 C142.93218,86.9795707 144.141464,86.9330598 147.304206,86.9330598 L151.58321,86.9330598 L151.676232,95.025959 C151.722743,100.514247 151.815765,103.21188 152.001808,103.351413 C152.420406,103.770011 154.048288,101.072378 160.699349,88.7004746 L161.629568,86.9330598 L165.443463,86.9330598 C167.536454,86.9330598 169.303868,87.0260816 169.350379,87.1191035 C169.489912,87.3051471 163.722559,97.5840593 157.955205,107.444373 C149.769284,121.490669 148.187913,123.444128 144.374018,124.513879 C143.071713,124.839455 137.536914,125.118521 136.513674,124.885966 Z" id="Shape"  fill="#f04f36" />
	</g>
</svg>
