<?xml version="1.0" encoding="UTF-8"?><svg id="a" xmlns="http://www.w3.org/2000/svg" viewBox="0 0 500 500" width="40" height="40"><defs><style>.b{fill:#484848;}</style></defs><path class="b" d="M497.56,344.11l-58.33-58.33c-1.56-1.56-3.68-2.44-5.89-2.44s-4.33,.88-5.89,2.44l-10.77,10.77-25.94-25.94c-10.1-10.05-15.77-23.72-15.73-37.97v-15.28c.05-18.67-7.37-36.59-20.61-49.76l-25.85-25.85c6.38-5.45,14.5-8.45,22.89-8.42,17.31,.05,33.92-6.83,46.13-19.11l1.43-1.43c11.36-11.29,17.72-26.66,17.68-42.68,.03-9.76-3.85-19.13-10.77-26.01-1.56-1.56-3.68-2.44-5.89-2.44s-4.33,.88-5.89,2.44l-30.89,30.89h-21.55v-21.55l30.89-30.89c1.56-1.56,2.44-3.68,2.44-5.89s-.88-4.33-2.44-5.89C365.68,3.85,356.31-.03,346.55,0c-16.02-.04-31.38,6.32-42.68,17.68l-1.43,1.43c-12.27,12.21-19.16,28.82-19.11,46.13,.03,9.38-3.7,18.38-10.35,25l-22.98,22.98-27.44-27.44c-6.83-6.84-16.4-10.2-26.02-9.16-9.61,1.05-18.23,6.4-23.43,14.55-5.2,8.15-6.42,18.22-3.33,27.38-11.03,1.82-20.31,9.29-24.43,19.69-4.13,10.39-2.51,22.2,4.27,31.09-8.4,2.38-15.46,8.1-19.52,15.83-4.07,7.73-4.78,16.79-1.98,25.06-10.31,1.7-19.14,8.34-23.62,17.79-4.48,9.44-4.04,20.48,1.17,29.55l-15.43,15.43c-6.62,6.66-15.62,10.38-25,10.36-17.31-.05-33.92,6.83-46.13,19.11l-1.43,1.43C6.32,315.16-.04,330.53,0,346.55c-.03,9.76,3.85,19.13,10.77,26.01,1.56,1.56,3.68,2.44,5.89,2.44s4.33-.88,5.89-2.44h0l30.89-30.89h21.55v21.55l-30.89,30.89c-1.56,1.56-2.44,3.68-2.44,5.89s.88,4.33,2.44,5.89c6.88,6.92,16.25,10.8,26.01,10.77,16.02,.04,31.38-6.32,42.68-17.68l1.43-1.43c12.27-12.21,19.16-28.82,19.11-46.13-.03-9.38,3.7-18.38,10.35-25l14.65-14.64,28.87,28.87c16.62,16.71,39.23,26.08,62.8,26.01,19.14-.05,37.51,7.56,51.01,21.13l12.2,12.2-10.77,10.77c-3.12,3.12-3.27,8.13-.33,11.43l66.67,75c1.58,1.78,3.85,2.8,6.23,2.8h.16c2.44-.04,4.73-1.16,6.28-3.04l82.36-100-12.86-10.6-76.17,92.49-54.98-61.85,113.55-113.55,47.09,47.09-15.78,19.16,12.86,10.6,20.59-25c2.73-3.31,2.5-8.15-.54-11.19ZM284.76,102.02c9.79-9.73,15.28-22.98,15.24-36.78-.03-12.89,5.09-25.26,14.23-34.34l1.43-1.43c8.18-8.22,19.3-12.83,30.89-12.8,2.41,0,4.81,.43,7.06,1.27l-26.17,26.17c-1.56,1.56-2.44,3.68-2.44,5.89v33.33c0,2.21,.88,4.33,2.44,5.89,1.56,1.56,3.68,2.44,5.89,2.44h33.33c2.21,0,4.33-.88,5.89-2.44l26.17-26.17c.84,2.26,1.27,4.65,1.27,7.06,.03,11.59-4.58,22.72-12.8,30.89l-1.43,1.43c-9.09,9.14-21.45,14.26-34.34,14.23-13.8-.04-27.05,5.45-36.78,15.24l-22.98,22.98-29.88-29.88,22.98-22.98Zm-152.86,212.63h0c-9.79,9.73-15.28,22.98-15.24,36.78,.03,12.89-5.09,25.26-14.23,34.34l-1.43,1.43c-8.18,8.22-19.3,12.83-30.89,12.8-2.41,0-4.81-.43-7.06-1.27l26.17-26.17c1.56-1.56,2.44-3.68,2.44-5.89v-33.33c0-2.21-.88-4.33-2.44-5.89-1.56-1.56-3.68-2.44-5.89-2.44H50c-2.21,0-4.33,.88-5.89,2.44l-26.17,26.17c-.84-2.26-1.27-4.65-1.27-7.06-.03-11.59,4.58-22.72,12.8-30.89h0l1.43-1.43c9.09-9.14,21.45-14.26,34.34-14.23,13.8,.04,27.05-5.45,36.78-15.24l14.65-14.64,29.88,29.88-14.65,14.65Zm251.43,15.24l-45.12,45.12-13.21,13.21-12.2-12.2c-16.62-16.71-39.23-26.08-62.8-26.01-19.14,.05-37.51-7.56-51.01-21.13l-76.43-76.43c-2.85-2.86-4.46-6.73-4.46-10.77s1.6-7.91,4.46-10.77h0c2.86-2.86,6.73-4.46,10.77-4.46s7.91,1.6,10.77,4.46l16.67,16.67,11.79-11.79-25-25c-3.85-3.85-5.35-9.46-3.94-14.72,1.41-5.26,5.52-9.36,10.77-10.77s10.87,.09,14.72,3.94l25,25,11.79-11.79-41.67-41.67c-3.85-3.85-5.35-9.46-3.94-14.72,1.41-5.26,5.52-9.36,10.77-10.77,5.26-1.41,10.87,.09,14.72,3.94l41.67,41.67,11.79-11.79-50-50c-3.85-3.85-5.35-9.46-3.94-14.72,1.41-5.26,5.52-9.36,10.77-10.77,5.26-1.41,10.87,.09,14.72,3.94l108.33,108.33,11.79-11.79-27.44-27.44,13.21-13.21,25.94,25.94c10.1,10.05,15.77,23.72,15.73,37.97v15.28c-.05,18.67,7.37,36.59,20.61,49.76l25.94,25.94-21.55,21.55Z"/></svg>