<?xml version="1.0" encoding="UTF-8"?><svg id="a" xmlns="http://www.w3.org/2000/svg" viewBox="0 0 500 500" width="40" height="40"><defs><style>.b{fill:#484848;}</style></defs><path class="b" d="M383.24,158.38v-.52q0-.52-.52-1.05c0-.52-.52-.52-.52-1.05,0,0,0-.52-.52-.52-.52-.52-.52-1.05-1.05-1.05l-47.12-47.12c-1.57-1.57-4.19-2.62-6.28-2.62H198.43c-2.62,0-4.71,1.05-6.28,2.62l-47.12,47.12c-.52,.52-.52,1.05-1.05,1.05l-.52,.52c0,.52-.52,.52-.52,1.05s0,.52-.52,1.05v199.47c0,4.71,4.19,8.9,8.9,8.9h33.51c1.05,0,1.57,0,2.62-.52,2.62,16.76,17.28,29.84,35.08,29.84s31.94-12.57,34.56-29.32h138.22c3.14,16.76,17.28,29.32,34.56,29.32s31.94-12.57,34.56-29.32h26.7c4.71,0,8.9-4.19,8.9-8.9v-92.67c0-23.56-6.81-43.45-19.37-57.07-12.04-13.09-28.8-19.9-47.64-19.9h-49.21v-27.75c-.54-.53-.54-1.05-.54-1.57h0Zm-113.09-36.13h53.4l29.32,29.32h-82.72v-29.32Zm-68.58,0h50.26v29.32h-79.58l29.32-29.32Zm19.9,256.02c-9.42,0-17.28-7.85-17.28-17.28s7.85-17.28,17.28-17.28,17.28,7.85,17.28,17.28c0,9.43-7.86,17.28-17.28,17.28Zm143.45-181.67v152.35h-107.33c-1.05,0-2.09,0-2.62,.52-4.71-14.14-17.8-24.09-33.51-24.09s-28.8,10.47-33.51,24.09c-1.05-.52-2.62-1.05-3.67-1.05h-24.09V168.85h205.23v27.75h-.52Zm63.87,181.67c-9.42,0-17.28-7.85-17.28-17.28s7.85-17.28,17.28-17.28,17.28,7.85,17.28,17.28-7.85,17.28-17.28,17.28Zm3.67-172.77c30.37,0,49.21,22.51,49.21,59.16v83.77h-19.37c-4.71-13.61-17.8-23.56-33.51-23.56s-28.27,9.95-32.98,23.56h-12.04V205.5h48.69Zm-385.33-4.19H115.71c4.71,0,8.9,4.19,8.9,8.9s-4.19,8.9-8.9,8.9H47.12c-4.71,0-8.9-4.19-8.9-8.9s4.19-8.9,8.9-8.9ZM0,258.9c0-4.71,4.19-8.9,8.9-8.9H115.18c4.71,0,8.9,4.19,8.9,8.9s-4.19,8.9-8.9,8.9H8.9c-4.71,0-8.9-3.66-8.9-8.9Zm124.6,48.69c0,4.71-4.19,8.9-8.9,8.9H47.12c-4.71,0-8.9-4.19-8.9-8.9s4.19-8.9,8.9-8.9H115.7c5.23,0,8.9,3.66,8.9,8.9Zm79.58-47.64c0-4.71,4.19-8.9,8.9-8.9h69.11l-12.04-12.04c-3.67-3.67-3.67-9.42,0-12.57,3.67-3.67,9.42-3.67,12.57,0l27.23,27.23c.52,.52,.52,1.05,1.05,1.05,0,0,0,.52,.52,.52,0,.52,.52,.52,.52,1.05s0,.52,.52,1.05v4.19q0,.52-.52,1.05c0,.52-.52,.52-.52,1.05,0,0,0,.52-.52,.52-.52,.52-.52,1.05-1.05,1.05l-28.8,28.8c-1.57,1.57-4.19,2.62-6.28,2.62s-4.71-1.05-6.28-2.62c-3.67-3.67-3.67-9.42,0-12.57l13.61-13.61h-69.11c-4.71,1.04-8.9-3.14-8.9-7.86h0Z"/></svg>