<?xml version="1.0" encoding="UTF-8"?>
<svg width="200px" height="200px" viewBox="0 0 200 200" version="1.1" xmlns="http://www.w3.org/2000/svg" xmlns:xlink="http://www.w3.org/1999/xlink">
    <!-- Generator: Sketch 53.2 (72643) - https://sketchapp.com -->
    <title>3080-ola-money</title>
	<desc>Created with Sketch for Hektor Commerce.</desc>
    <g id="3080-ola-money" stroke="none" stroke-width="1" fill-rule="evenodd">
                    <rect id="core" fill-opacity="0" x="100" y="100" width="1" height="1" fill="#f04f36" />
        <polygon id="Fill-1" fill-opacity="0.5" points="79.3852632 97.5215789 86.7421053 122.104737 71.4894737 122.104737 71.38 122.447895 87.0842105 122.447895 93.8873684 100.772105 86.1147368 76.5689474"></polygon>
        <polygon id="Fill-1" fill-opacity="0.5" points="114.395579 74.9937895 108.195579 94.2969474 116.393474 119.823263 122.755579 100.302211 114.737684 75.3337895 122.560842 75.3337895"></polygon>
        <polygon id="Fill-1" fill-opacity="0.5" points="99.374 121.764 100.629789 121.764 100.001368 119.809263"></polygon>
        <path d="M129.758421,122.105263 L114.737368,75.3336842 L122.756316,100.302105 L116.394211,119.823158 L117.126842,122.105263 L100.739474,122.105263 L93.8878947,100.771579 L87.0836842,122.447368 L71.3805263,122.447368 L71.49,122.105263 L71.0384211,122.105263 L56.0173684,75.3336842 L72.7457895,75.3336842 L86.7426316,122.105263 L79.3857895,97.5221053 L86.1152632,76.5684211 L85.7184211,75.3336842 L102.105789,75.3336842 L108.196316,94.2968421 L114.395263,74.9936842 L122.560526,75.3336842 L131.123684,75.3336842 L146.145789,122.105263 L129.758421,122.105263 Z M99.3742105,121.764211 L100.001579,119.808421 L100.63,121.764211 L99.3742105,121.764211 Z M99.9994737,40 C66.8626316,40 39.9994737,66.8631579 39.9994737,100 C39.9994737,133.136842 66.8626316,160 99.9994737,160 C133.137368,160 159.999474,133.136842 159.999474,100 C159.999474,66.8631579 133.137368,40 99.9994737,40 L99.9994737,40 Z" id="Fill-7" fill="#f04f36" />
    </g>
</svg>